<svg version="1.0" xmlns="http://www.w3.org/2000/svg" width="680" height="500" viewBox="0 0 340 250" color-interpolation-filters="sRGB"><g fill="#c471f5" class="icon-text-wrapper icon-svg-group iconsvg"><g class="iconsvg-imagesvg" transform="translate(140 60.509)" mask="url(#a)"><path class="image-rect" fill="none" d="M0 0h60v60H0z"/><svg filter="url(#b)" width="60" height="60" class="image-svg-svg primary" style="overflow:visible"><svg xmlns="http://www.w3.org/2000/svg" xmlns:xlink="http://www.w3.org/1999/xlink" xml:space="preserve" viewBox="84 85 678 678" fill-rule="evenodd" clip-rule="evenodd"><path d="M423 85c187 0 339 152 339 339S610 763 423 763 84 611 84 424 236 85 423 85zm146 130c-44-19-97-11-133 25s-44 89-25 133L218 566c-17 17-17 45 0 62s45 17 62 0l193-193c44 19 97 11 133-25s44-89 25-133l-64 64c-17 17-45 17-62 0s-17-45 0-62l64-64zm-364 10 20-20 84 49-15 15 100 100-24 24-100-100-15 15-50-83zm273 229 22 22 27-27 106 106c12 12 12 32 0 44l-33 33c-12 12-32 12-44 0L450 526l27-27-22-22 24-24zm43 38 11-11 86 86-11 11-86-86zm-20 20 11-11 86 86-11 11-86-86zm-20 20 11-11 86 86-11 11-86-86zm-199 31-29-8-21 21 8 29 29 8 21-21-8-29z"/></svg></svg><defs><filter id="b"><feColorMatrix values="0 0 0 0 0.765625 0 0 0 0 0.44140625 0 0 0 0 0.95703125 0 0 0 1 0" class="icon-fecolormatrix"/></filter></defs><path transform="translate(-6 -6)" style="pointer-events:none" fill="url(#c)" d="M0 0h72v72H0z"/></g><g><path d="m.63-44.69 34.6-.06-.32 13.46-9.46.38-1.14 29.45-13.39.7-1.21-29.45-9.46.5.38-14.98ZM73.98-11.3q0 2.64-.97 4.54-.96 1.9-2.58 3.24-1.62 1.33-3.73 2.17-2.11.84-4.4 1.32-2.28.47-4.58.63-2.3.16-4.3.16-1.97 0-4.08-.14-2.11-.14-4.21-.49-2.09-.35-4.12-.94-2.04-.59-3.84-1.48l-.07-40.87q1.78-.73 3.78-1.32 2-.59 4.08-.99 2.08-.39 4.14-.6 2.06-.2 4-.2 2.25 0 4.55.28 2.3.29 4.43.95 2.13.67 3.97 1.73 1.84 1.07 3.22 2.62 1.38 1.56 2.16 3.62.77 2.06.77 4.76 0 1.78-.5 3.33-.51 1.56-1.46 2.8-.96 1.23-2.32 2.11-1.36.87-3.08 1.28 2.06.54 3.76 1.59 1.7 1.05 2.89 2.54 1.19 1.49 1.84 3.36.65 1.87.65 4ZM57.86-29.39q0-.92-.38-1.57t-.94-1.06q-.55-.42-1.2-.61-.65-.19-1.16-.19-.64 0-1.24.19t-1.17.45l-.2 7.04q.73 0 1.81-.12 1.08-.13 2.08-.56 1-.43 1.7-1.27.7-.84.7-2.3Zm-4.51 10.35q-.92 0-1.78.19l-.12 7.23q.47.1.93.18.46.08.91.08.67 0 1.46-.15.79-.14 1.49-.57.7-.42 1.16-1.15.46-.73.46-1.94t-.46-1.97q-.46-.76-1.13-1.19-.66-.43-1.46-.57-.79-.14-1.46-.14Zm60.81-5.27q0 2.89-.66 5.57-.67 2.68-1.92 5.03-1.26 2.35-3.05 4.3-1.79 1.95-4.03 3.35-2.24 1.39-4.87 2.17-2.64.78-5.59.78-2.86 0-5.44-.73-2.59-.73-4.84-2.05-2.26-1.31-4.08-3.17-1.83-1.86-3.11-4.13-1.29-2.27-2-4.87-.72-2.6-.72-5.43 0-2.76.67-5.41.67-2.65 1.92-5 1.26-2.35 3.03-4.31 1.78-1.97 3.99-3.4 2.2-1.43 4.77-2.22 2.57-.79 5.43-.79 4.6 0 8.39 1.42 3.8 1.43 6.48 4.08 2.68 2.65 4.16 6.41 1.47 3.76 1.47 8.4Zm-14.09.82q0-1.36-.4-2.65-.39-1.28-1.15-2.28-.77-1-1.89-1.62-1.13-.62-2.59-.62-1.49 0-2.67.54-1.17.54-2.01 1.48-.84.93-1.29 2.19-.44 1.25-.44 2.65 0 1.33.38 2.66.38 1.34 1.14 2.41.76 1.08 1.89 1.75 1.13.67 2.62.67 1.49 0 2.68-.59 1.19-.59 2.02-1.59.82-1 1.27-2.3.44-1.3.44-2.7ZM137.55-45l14.98 1.77-12.37 20.25 11.17 18.09-13.27 4.13-6.35-12.32-6.72 13.02-13.72-4.95 11.68-18.41-10.66-18.09L126.83-45l5.2 11.48L137.55-45Z" transform="translate(93.61 173.779)" data-gra="path-name" class="tp-name iconsvg-namesvg" fill="url(#d)"/><path d="M3.09-7.59H.19v-.99h6.94v.99H4.22V0H3.09v-7.59Zm8.3-.05H9.33v2.67h2.06q1.83.05 1.78-1.41 0-1.26-1.78-1.26ZM11.86 0h-3.7v-8.58h3.79q2.3.1 2.39 2.16 0 1.26-1.12 1.78 1.59.56 1.59 2.11Q14.67-.09 11.86 0Zm-.28-3.98H9.33v3h2.48q1.78-.05 1.83-1.55 0-1.45-2.06-1.45Zm11.34-.29q-.19-3.37-3-3.56-2.86.14-3 3.56.14 3.33 3 3.47 2.81-.18 3-3.47Zm1.17 0Q23.81 0 19.92.14 15.98 0 15.7-4.27q.24-4.45 4.22-4.54 3.89.14 4.17 4.54Zm8.11-4.31-2.9 4.17L32.34 0h-1.45l-2.34-3.52L26.2 0h-1.4l3.09-4.41-2.91-4.17h1.46l2.15 3.28 2.21-3.28h1.4Zm1.36 7.31h1.27V0h-1.27v-1.27Zm8.72-2.62h-4.22V0h-1.17v-8.58h5.95v.99h-4.78v2.67h4.22v1.03Zm7.41.7v-5.39h1.17v5.53Q50.72.05 47.34.14q-3.14-.09-3.28-3v-5.72h1.17v5.39q.05 2.35 2.16 2.39 2.3-.04 2.3-2.39Zm4.36-5.39 4.31 6.94v-6.94h1.12V0h-1.31l-4.36-6.94h-.04V0h-1.13v-8.58h1.41Z" transform="translate(140.167 189.351)" data-gra="path-slogan" class="tp-slogan iconsvg-slogansvg" fill="url(#e)"/></g></g><defs><linearGradient x1="0" y1="1" x2="0" y2="0" id="e"><stop offset="0%" stop-color="#c471f5"/><stop offset="100%" stop-color="#fa70cd"/></linearGradient><linearGradient x1="0" y1="1" x2="0" y2="0" id="d"><stop offset="0%" stop-color="#c471f5"/><stop offset="100%" stop-color="#fa70cd"/></linearGradient></defs><defs><linearGradient x1="0" y1="1" x2="0" y2="0" id="c"><stop offset="0%" stop-color="#c471f5"/><stop offset="100%" stop-color="#fa70cd"/></linearGradient><filter id="f" filterUnits="userSpaceOnUse"><feColorMatrix values="0 0 0 0 0.99609375 0 0 0 0 0.99609375 0 0 0 0 0.99609375 0 0 0 1 0"/></filter></defs><mask id="a"><g class="iconsvg-imagesvg" filter="url(#f)"><path fill="#c471f5" fill-opacity="0" stroke-width="2" class="image-rect" d="M0 0h60v60H0z"/><svg width="60" height="60" class="image-svg-svg primary" style="overflow:visible"><svg xmlns="http://www.w3.org/2000/svg" xmlns:xlink="http://www.w3.org/1999/xlink" xml:space="preserve" viewBox="84 85 678 678" fill-rule="evenodd" clip-rule="evenodd"><path d="M423 85c187 0 339 152 339 339S610 763 423 763 84 611 84 424 236 85 423 85zm146 130c-44-19-97-11-133 25s-44 89-25 133L218 566c-17 17-17 45 0 62s45 17 62 0l193-193c44 19 97 11 133-25s44-89 25-133l-64 64c-17 17-45 17-62 0s-17-45 0-62l64-64zm-364 10 20-20 84 49-15 15 100 100-24 24-100-100-15 15-50-83zm273 229 22 22 27-27 106 106c12 12 12 32 0 44l-33 33c-12 12-32 12-44 0L450 526l27-27-22-22 24-24zm43 38 11-11 86 86-11 11-86-86zm-20 20 11-11 86 86-11 11-86-86zm-20 20 11-11 86 86-11 11-86-86zm-199 31-29-8-21 21 8 29 29 8 21-21-8-29z"/></svg></svg></g></mask></svg>