<svg data-v-0dd9719b="" version="1.0" xmlns="http://www.w3.org/2000/svg" xmlns:xlink="http://www.w3.org/1999/xlink" width="680" height="500" viewBox="0 0 340.000000 250.000000" preserveAspectRatio="xMidYMid meet" color-interpolation-filters="sRGB" style="">   <g data-v-0dd9719b="" fill="#c471f5" class="icon-text-wrapper icon-svg-group iconsvg" transform="translate(93.86000061035156,60.508750915527344)"><g class="iconsvg-imagesvg" transform="translate(46.13999938964844,0)" mask="url(#cac28fb6-963a-4369-9a11-01a874d97be3)"><g><rect fill="#c471f5" fill-opacity="0" stroke-width="2" x="0" y="0" width="60" height="60" class="image-rect"></rect> <svg filter="url(#colors45413199)" x="0" y="0" width="60" height="60" filtersec="colorsf6708143398" class="image-svg-svg primary" style="overflow: visible;"><svg xmlns="http://www.w3.org/2000/svg" xmlns:xlink="http://www.w3.org/1999/xlink" xml:space="preserve" version="1.1" viewBox="84 85 678 678" x="0px" y="0px" fill-rule="evenodd" clip-rule="evenodd"><defs></defs><g><path d="M423 85c187,0 339,152 339,339 0,187 -152,339 -339,339 -187,0 -339,-152 -339,-339 0,-187 152,-339 339,-339zm146 130c-44,-19 -97,-11 -133,25 -36,36 -44,89 -25,133l-193 193c-17,17 -17,45 0,62l0 0c17,17 45,17 62,0l193 -193c44,19 97,11 133,-25 36,-36 44,-89 25,-133l-64 64c-17,17 -45,17 -62,0l0 0c-17,-17 -17,-45 0,-62l64 -64zm-364 10l20 -20 84 49 -15 15 100 100 -24 24 -100 -100 -15 15 -50 -83zm273 229l22 22 27 -27 106 106c12,12 12,32 0,44l-33 33c-12,12 -32,12 -44,0l-106 -106 27 -27 -22 -22 24 -24zm43 38l11 -11 86 86 -11 11 -86 -86zm-20 20l11 -11 86 86 -11 11 -86 -86zm-20 20l11 -11 86 86 -11 11 -86 -86zm-199 31l-29 -8 -21 21 8 29 29 8 21 -21 -8 -29z"></path></g></svg></svg> <defs><filter id="colors45413199"><feColorMatrix type="matrix" values="0 0 0 0 0.765625  0 0 0 0 0.44140625  0 0 0 0 0.95703125  0 0 0 1 0" class="icon-fecolormatrix"></feColorMatrix></filter> <filter id="colorsf6708143398"><feColorMatrix type="matrix" values="0 0 0 0 0.99609375  0 0 0 0 0.99609375  0 0 0 0 0.99609375  0 0 0 1 0" class="icon-fecolormatrix"></feColorMatrix></filter> <filter id="colorsb4680973129"><feColorMatrix type="matrix" values="0 0 0 0 0  0 0 0 0 0  0 0 0 0 0  0 0 0 1 0" class="icon-fecolormatrix"></feColorMatrix></filter></defs></g><rect v-gra="id" width="72" height="72" transform="translate(-6, -6)" style="pointer-events:none;" fill="url(#cekjHonmOIX8zVh422xFT)"></rect></g> <g transform="translate(0,67)"><g data-gra="path-name" fill-rule="" class="tp-name iconsvg-namesvg" transform="translate(0,0)" fill="url(#bc68f5da-6ee1-4fea-9cce-362a18b61113)"><g transform="scale(1)"><g><path d="M0.63-44.69L35.23-44.75 34.91-31.29 25.45-30.91 24.31-1.46 10.92-0.76 9.71-30.21 0.25-29.71 0.63-44.69ZM73.98-11.3L73.98-11.3Q73.98-8.66 73.01-6.76 72.05-4.86 70.43-3.52 68.81-2.19 66.7-1.35 64.59-0.51 62.3-0.03 60.02 0.44 57.72 0.6 55.42 0.76 53.42 0.76L53.42 0.76Q51.45 0.76 49.34 0.62 47.23 0.48 45.13 0.13 43.04-0.22 41.01-0.81 38.97-1.4 37.17-2.29L37.17-2.29 37.1-43.16Q38.88-43.89 40.88-44.48 42.88-45.07 44.96-45.47 47.04-45.86 49.1-46.07 51.16-46.27 53.1-46.27L53.1-46.27Q55.35-46.27 57.65-45.99 59.95-45.7 62.08-45.04 64.21-44.37 66.05-43.31 67.89-42.24 69.27-40.69 70.65-39.13 71.43-37.07 72.2-35.01 72.2-32.31L72.2-32.31Q72.2-30.53 71.7-28.98 71.19-27.42 70.24-26.18 69.28-24.95 67.92-24.07 66.56-23.2 64.84-22.79L64.84-22.79Q66.9-22.25 68.6-21.2 70.3-20.15 71.49-18.66 72.68-17.17 73.33-15.3 73.98-13.43 73.98-11.3ZM57.86-29.39L57.86-29.39Q57.86-30.31 57.48-30.96 57.1-31.61 56.54-32.02 55.99-32.44 55.34-32.63 54.69-32.82 54.18-32.82L54.18-32.82Q53.54-32.82 52.94-32.63 52.34-32.44 51.77-32.18L51.77-32.18 51.57-25.14Q52.3-25.14 53.38-25.26 54.46-25.39 55.46-25.82 56.46-26.25 57.16-27.09 57.86-27.93 57.86-29.39ZM53.35-19.04L53.35-19.04Q52.43-19.04 51.57-18.85L51.57-18.85 51.45-11.62Q51.92-11.52 52.38-11.44 52.84-11.36 53.29-11.36L53.29-11.36Q53.96-11.36 54.75-11.51 55.54-11.65 56.24-12.08 56.94-12.5 57.4-13.23 57.86-13.96 57.86-15.17L57.86-15.17Q57.86-16.38 57.4-17.14 56.94-17.9 56.27-18.33 55.61-18.76 54.81-18.9 54.02-19.04 53.35-19.04ZM114.16-24.31L114.16-24.31Q114.16-21.42 113.5-18.74 112.83-16.06 111.58-13.71 110.32-11.36 108.53-9.41 106.74-7.46 104.5-6.06 102.26-4.67 99.63-3.89 96.99-3.11 94.04-3.11L94.04-3.11Q91.18-3.11 88.6-3.84 86.01-4.57 83.76-5.89 81.5-7.2 79.68-9.06 77.85-10.92 76.57-13.19 75.28-15.46 74.57-18.06 73.85-20.66 73.85-23.49L73.85-23.49Q73.85-26.25 74.52-28.9 75.19-31.55 76.44-33.9 77.7-36.25 79.47-38.21 81.25-40.18 83.46-41.61 85.66-43.04 88.23-43.83 90.8-44.62 93.66-44.62L93.66-44.62Q98.26-44.62 102.05-43.2 105.85-41.77 108.53-39.12 111.21-36.47 112.69-32.71 114.16-28.95 114.16-24.31ZM100.07-23.49L100.07-23.49Q100.07-24.85 99.67-26.14 99.28-27.42 98.52-28.42 97.75-29.42 96.63-30.04 95.5-30.66 94.04-30.66L94.04-30.66Q92.55-30.66 91.37-30.12 90.2-29.58 89.36-28.64 88.52-27.71 88.07-26.45 87.63-25.2 87.63-23.8L87.63-23.8Q87.63-22.47 88.01-21.14 88.39-19.8 89.15-18.73 89.91-17.65 91.04-16.98 92.17-16.31 93.66-16.31L93.66-16.31Q95.15-16.31 96.34-16.9 97.53-17.49 98.36-18.49 99.18-19.49 99.63-20.79 100.07-22.09 100.07-23.49ZM137.55-45L152.53-43.23 140.16-22.98 151.33-4.89 138.06-0.76 131.71-13.08 124.99-0.06 111.27-5.01 122.95-23.42 112.29-41.51 126.83-45 132.03-33.52 137.55-45Z" transform="translate(-0.25, 46.27000045776367)"></path></g> <!----> <!----> <!----> <!----> <!----> <!----> <!----></g></g> <g data-gra="path-slogan" fill-rule="" class="tp-slogan iconsvg-slogansvg" fill="url(#3a911d08-a859-458d-b942-08b7d3c8c75a)" transform="translate(46.494998931884766,53.03000259399414)"><!----> <!----> <g transform="scale(1, 1)"><g transform="scale(1)"><path d="M3.09-7.59L0.19-7.59L0.19-8.58L7.13-8.58L7.13-7.59L4.22-7.59L4.22 0L3.09 0L3.09-7.59ZM11.39-7.64L9.33-7.64L9.33-4.97L11.39-4.97Q13.22-4.92 13.17-6.38L13.17-6.38Q13.17-7.64 11.39-7.64L11.39-7.64ZM11.86 0L8.16 0L8.16-8.58L11.95-8.58Q14.25-8.48 14.34-6.42L14.34-6.42Q14.34-5.16 13.22-4.64L13.22-4.64Q14.81-4.08 14.81-2.53L14.81-2.53Q14.67-0.09 11.86 0L11.86 0ZM11.58-3.98L9.33-3.98L9.33-0.98L11.81-0.98Q13.59-1.03 13.64-2.53L13.64-2.53Q13.64-3.98 11.58-3.98L11.58-3.98ZM22.92-4.27L22.92-4.27Q22.73-7.64 19.92-7.83L19.92-7.83Q17.06-7.69 16.92-4.27L16.92-4.27Q17.06-0.94 19.92-0.80L19.92-0.80Q22.73-0.98 22.92-4.27ZM24.09-4.27L24.09-4.27Q23.81 0 19.92 0.14L19.92 0.14Q15.98 0 15.70-4.27L15.70-4.27Q15.94-8.72 19.92-8.81L19.92-8.81Q23.81-8.67 24.09-4.27ZM32.20-8.58L29.30-4.41L32.34 0L30.89 0L28.55-3.52L26.20 0L24.80 0L27.89-4.41L24.98-8.58L26.44-8.58L28.59-5.30L30.80-8.58L32.20-8.58ZM33.56-1.27L34.83-1.27L34.83 0L33.56 0L33.56-1.27ZM42.28-3.89L38.06-3.89L38.06 0L36.89 0L36.89-8.58L42.84-8.58L42.84-7.59L38.06-7.59L38.06-4.92L42.28-4.92L42.28-3.89ZM49.69-3.19L49.69-8.58L50.86-8.58L50.86-3.05Q50.72 0.05 47.34 0.14L47.34 0.14Q44.20 0.05 44.06-2.86L44.06-2.86L44.06-8.58L45.23-8.58L45.23-3.19Q45.28-0.84 47.39-0.80L47.39-0.80Q49.69-0.84 49.69-3.19L49.69-3.19ZM54.05-8.58L58.36-1.64L58.36-8.58L59.48-8.58L59.48 0L58.17 0L53.81-6.94L53.77-6.94L53.77 0L52.64 0L52.64-8.58L54.05-8.58Z" transform="translate(-0.1875, 8.8125)"></path></g></g></g></g></g><defs v-gra="od"><linearGradient x1="0" y1="1" x2="0" y2="0" id="3a911d08-a859-458d-b942-08b7d3c8c75a"><stop offset="0%" stop-color="#c471f5"></stop><stop offset="100%" stop-color="#fa70cd"></stop></linearGradient><filter id="42443b3f1de60f6b6fd3b6a9844b4764" filterUnits="objectBoundingBox"><feColorMatrix type="matrix" values="0 0 0 0 0.99609375  0 0 0 0 0.99609375  0 0 0 0 0.99609375  0 0 0 1 0"></feColorMatrix></filter><linearGradient x1="0" y1="1" x2="0" y2="0" id="bc68f5da-6ee1-4fea-9cce-362a18b61113"><stop offset="0%" stop-color="#c471f5"></stop><stop offset="100%" stop-color="#fa70cd"></stop></linearGradient><filter id="42443b3f1de60f6b6fd3b6a9844b4764" filterUnits="objectBoundingBox"><feColorMatrix type="matrix" values="0 0 0 0 0.99609375  0 0 0 0 0.99609375  0 0 0 0 0.99609375  0 0 0 1 0"></feColorMatrix></filter></defs><defs v-gra="id"><filter id="4e981a8a-c806-4652-a9c1-65d00668b761" filterUnits="userSpaceOnUse"><feColorMatrix type="matrix" values="0 0 0 0 0.99609375  0 0 0 0 0.99609375  0 0 0 0 0.99609375  0 0 0 1 0"></feColorMatrix></filter><linearGradient x1="0" y1="1" x2="0" y2="0" id="cekjHonmOIX8zVh422xFT"><stop offset="0%" stop-color="#c471f5"></stop><stop offset="100%" stop-color="#fa70cd"></stop></linearGradient><filter id="42443b3f1de60f6b6fd3b6a9844b4764" filterUnits="objectBoundingBox"><feColorMatrix type="matrix" values="0 0 0 0 0.99609375  0 0 0 0 0.99609375  0 0 0 0 0.99609375  0 0 0 1 0"></feColorMatrix></filter></defs><mask v-gra="im" id="cac28fb6-963a-4369-9a11-01a874d97be3"><g class="iconsvg-imagesvg" filter="url(#4e981a8a-c806-4652-a9c1-65d00668b761)"><g><rect fill="#c471f5" fill-opacity="0" stroke-width="2" x="0" y="0" width="60" height="60" class="image-rect"></rect> <svg x="0" y="0" width="60" height="60" filtersec="colorsf6708143398" class="image-svg-svg primary" style="overflow: visible;"><svg xmlns="http://www.w3.org/2000/svg" xmlns:xlink="http://www.w3.org/1999/xlink" xml:space="preserve" version="1.1" viewBox="84 85 678 678" x="0px" y="0px" fill-rule="evenodd" clip-rule="evenodd"><defs></defs><g><path d="M423 85c187,0 339,152 339,339 0,187 -152,339 -339,339 -187,0 -339,-152 -339,-339 0,-187 152,-339 339,-339zm146 130c-44,-19 -97,-11 -133,25 -36,36 -44,89 -25,133l-193 193c-17,17 -17,45 0,62l0 0c17,17 45,17 62,0l193 -193c44,19 97,11 133,-25 36,-36 44,-89 25,-133l-64 64c-17,17 -45,17 -62,0l0 0c-17,-17 -17,-45 0,-62l64 -64zm-364 10l20 -20 84 49 -15 15 100 100 -24 24 -100 -100 -15 15 -50 -83zm273 229l22 22 27 -27 106 106c12,12 12,32 0,44l-33 33c-12,12 -32,12 -44,0l-106 -106 27 -27 -22 -22 24 -24zm43 38l11 -11 86 86 -11 11 -86 -86zm-20 20l11 -11 86 86 -11 11 -86 -86zm-20 20l11 -11 86 86 -11 11 -86 -86zm-199 31l-29 -8 -21 21 8 29 29 8 21 -21 -8 -29z"></path></g></svg></svg> <defs><filter id="colors45413199"><feColorMatrix type="matrix" values="0 0 0 0 0.765625  0 0 0 0 0.44140625  0 0 0 0 0.95703125  0 0 0 1 0" class="icon-fecolormatrix"></feColorMatrix></filter> <filter id="colorsf6708143398"><feColorMatrix type="matrix" values="0 0 0 0 0.99609375  0 0 0 0 0.99609375  0 0 0 0 0.99609375  0 0 0 1 0" class="icon-fecolormatrix"></feColorMatrix></filter> <filter id="colorsb4680973129"><feColorMatrix type="matrix" values="0 0 0 0 0  0 0 0 0 0  0 0 0 0 0  0 0 0 1 0" class="icon-fecolormatrix"></feColorMatrix></filter></defs></g></g></mask></svg>